<svg width="22" height="22" viewBox="0 0 22 22" fill="none" xmlns="http://www.w3.org/2000/svg">
<path d="M0.800137 21.4H21.1881C21.4041 21.4 21.6081 21.312 21.7601 21.16C21.9121 21.008 21.9921 20.8 21.9881 20.584C21.8921 15.716 18.5681 11.588 14.1001 10.256C15.6041 9.252 16.5961 7.54 16.5961 5.6C16.5961 2.512 14.0841 0 10.9961 0C7.90814 0 5.39614 2.512 5.39614 5.6C5.39614 7.54 6.38814 9.252 7.88814 10.256C3.42014 11.592 0.0961366 15.716 0.000136647 20.584C-0.00386335 20.8 0.0801365 21.008 0.228137 21.16C0.376136 21.312 0.588137 21.4 0.800137 21.4V21.4ZM6.99614 5.6C6.99614 3.396 8.79214 1.6 10.9961 1.6C13.2001 1.6 14.9961 3.396 14.9961 5.6C14.9961 7.804 13.2001 9.6 10.9961 9.6C8.79214 9.6 6.99614 7.804 6.99614 5.6ZM10.9961 11.4C15.8041 11.4 19.8361 15.1 20.3401 19.8H1.65214C2.15614 15.1 6.18814 11.4 10.9961 11.4Z" fill="black"/>
</svg>
