<svg width="22" height="23" viewBox="0 0 22 23" fill="none" xmlns="http://www.w3.org/2000/svg">
<path d="M21.2 4H5.52L4.784 0.628C4.7 0.26 4.376 0 4 0H0.8C0.36 0 0 0.36 0 0.8C0 1.24 0.36 1.6 0.8 1.6H3.356L5.82 12.86C4.552 13.128 3.6 14.256 3.6 15.6C3.6 17.144 4.856 18.4 6.4 18.4H17.8C18.24 18.4 18.6 18.04 18.6 17.6C18.6 17.16 18.24 16.8 17.8 16.8H6.4C5.74 16.8 5.2 16.26 5.2 15.6C5.2 14.94 5.74 14.4 6.4 14.4H6.8H17.8H18C18.336 14.4 18.636 14.188 18.752 13.872L21.952 5.072C22.04 4.828 22.004 4.552 21.856 4.34C21.704 4.128 21.46 4 21.2 4ZM17.44 12.8H7.444L5.868 5.6H20.056L17.44 12.8Z" fill="black"/>
<path d="M6.79766 22.4C7.4604 22.4 7.99766 21.8627 7.99766 21.2C7.99766 20.5373 7.4604 20 6.79766 20C6.13491 20 5.59766 20.5373 5.59766 21.2C5.59766 21.8627 6.13491 22.4 6.79766 22.4Z" fill="black"/>
<path d="M15.6023 22.4C16.2651 22.4 16.8023 21.8627 16.8023 21.2C16.8023 20.5373 16.2651 20 15.6023 20C14.9396 20 14.4023 20.5373 14.4023 21.2C14.4023 21.8627 14.9396 22.4 15.6023 22.4Z" fill="black"/>
</svg>
