<svg width="22" height="22" viewBox="0 0 22 22" fill="none" xmlns="http://www.w3.org/2000/svg">
<path d="M9.952 19.9C12.356 19.9 14.564 19.04 16.288 17.616L20.288 21.616C20.444 21.772 20.648 21.852 20.852 21.852C21.056 21.852 21.26 21.772 21.416 21.616C21.728 21.304 21.728 20.796 21.416 20.484L17.432 16.5C18.968 14.748 19.9 12.456 19.9 9.952C19.9 4.464 15.436 0 9.948 0C4.46 0 0 4.46 0 9.948C0 15.436 4.464 19.9 9.952 19.9V19.9ZM9.952 1.596C14.556 1.596 18.304 5.34 18.304 9.948C18.304 14.556 14.556 18.3 9.952 18.3C5.348 18.3 1.6 14.552 1.6 9.948C1.6 5.344 5.348 1.596 9.952 1.596V1.596Z" fill="black"/>
</svg>
