<svg width="24" height="24" viewBox="0 0 24 24" fill="none" xmlns="http://www.w3.org/2000/svg">
<path fill-rule="evenodd" clip-rule="evenodd" d="M10.9216 17.515C14.6225 17.3878 17.5196 14.2846 17.3924 10.5837C17.2653 6.88277 14.162 3.98567 10.4611 4.11282C6.7602 4.23997 3.86311 7.34323 3.99026 11.0441C4.11741 14.745 7.22066 17.6421 10.9216 17.515ZM11.0177 20.3136C16.2643 20.1334 20.3713 15.7341 20.1911 10.4875C20.0108 5.24097 15.6115 1.13393 10.365 1.31418C5.11841 1.49444 1.01136 5.89374 1.19162 11.1403C1.37187 16.3868 5.77117 20.4939 11.0177 20.3136Z" fill="white"/>
<path fill-rule="evenodd" clip-rule="evenodd" d="M15.2144 15.8972C15.7793 15.2921 16.7502 15.2804 17.3829 15.8711L21.9883 20.1705C22.621 20.7612 22.6759 21.7306 22.111 22.3357C21.5461 22.9408 20.5752 22.9525 19.9425 22.3618L15.3372 18.0624C14.7045 17.4717 14.6495 16.5023 15.2144 15.8972Z" fill="white"/>
</svg>
